Queen.Rock.Montreal.&.Live.Aid.Bluray.1080p.VC-1.LCPM.Remux-CerealKiller

The only Queen concert ever filmed in its entirety, this 1981 Montreal Live Aid performance has been digitally restored and remixed. Featuring dynamic front man Freddie Mercury, the band puts on a high-octane show for a crowd of excited fans. Songs include "We Will Rock You," "We Are the Champions," "Somebody to Love," "Get Down Make Love," "Under Pressure," "Crazy Little Thing Called Love," "Killer Queen," "Bohemian Rhapsody" and many more.

List of songs

We Will Rock You (fast) (May)
Let Me Entertain You (Mercury)
Play the Game (Mercury)
Somebody to Love (Mercury)
Killer Queen (Mercury)
I'm in Love With My Car (Taylor)
Get Down, Make Love (Mercury)
Save Me (May)
Now I'm Here (May)
Dragon Attack (May)
Now I'm Here (reprise) (May)
Love of My Life (Mercury)
Under Pressure (Queen/Bowie)
Keep Yourself Alive (with impromptu jam before the song) (May)
Drum Solo/Tympani Solo (Queen/Taylor)
Guitar Solo/Guitar and Drum Duel (May)
Crazy Little Thing Called Love (Mercury)
Jailhouse Rock (Lieber, Stoller)
Bohemian Rhapsody (Mercury)
Tie Your Mother Down (May)
Another One Bites the Dust (Deacon)
Sheer Heart Attack (Taylor)
We Will Rock You (May)
We Are the Champions (Mercury)
God Save the Queen (tape) (arr. May)
  http://www.blu-ray.com/movies/Queen-Rock-Montreal-and-Live-Aid-Blu-ray/548/


Video
ID : 1
Format : VC-1
Format profile : AP@L3
Codec ID : WVC1
Codec ID/Hint : Microsoft
Duration : 1h 35mn
Width : 1 920 pixels
Height : 1 080 pixels
Display aspect ratio : 16:9
Frame rate : 23.976 fps
Chroma subsampling : 4:2:0
Bit depth : 8 bits
Scan type : Progressive
Compression mode : Lossy

Audio #1
ID : 2
Format : PCM
Codec ID : A_PCM/INT/LIT
Duration : 1h 35mn
Bit rate mode : Constant
Channel(s) : 2 channels
Sampling rate : 48.0 KHz
Bit depth : 24 bits

Audio #2
ID : 3
Format : DTS
Format/Info : Digital Theater Systems
Format profile : HRA / Core
Muxing mode : Header stripping
Codec ID : A_DTS
Duration : 1h 35mn
Bit rate mode : Constant
Bit rate : 3 019 Kbps / 1 510 Kbps
Channel(s) : 6 channels
Channel positions : Front: L C R, Side: L R, LFE
Sampling rate : 96.0 KHz / 48.0 KHz
Bit depth : 24 bits
Compression mode : Lossy
Stream size : 2.01 GiB (12%)

Audio #3
ID : 4
Format : AC-3
Format/Info : Audio Coding 3
Mode extension : CM (complete main)
Muxing mode : Header stripping
Codec ID : A_AC3
Duration : 1h 35mn
Bit rate mode : Constant
Bit rate : 192 Kbps
Channel(s) : 2 channels
Channel positions : Front: L R
Sampling rate : 48.0 KHz
Bit depth : 16 bits
Compression mode : Lossy
Stream size : 131 MiB (1%)
